<?xml version="1.0" encoding="utf-8"?>
<!-- Generator: Adobe Illustrator 22.1.0, SVG Export Plug-In . SVG Version: 6.00 Build 0)  -->
<svg version="1.1" id="ripple" xmlns="http://www.w3.org/2000/svg" xmlns:xlink="http://www.w3.org/1999/xlink" x="0px" y="0px"
	 viewBox="0 0 200 215" style="enable-background:new 0 0 200 215;" xml:space="preserve">
<style type="text/css">
	.st0{fill:url(#SVGID_1_);}
</style>
<g>
	<linearGradient id="SVGID_1_" gradientUnits="userSpaceOnUse" x1="57.2313" y1="34.2525" x2="204.7262" y2="181.7474">
		<stop  offset="0" style="stop-color:#1DB4FF"/>
		<stop  offset="1" style="stop-color:#0F72E5"/>
	</linearGradient>
	<path class="st0" d="M175.9,131.5c-7.5-4.3-16-5.6-24.4-5.9c-7-0.2-17.5-4.8-17.5-17.6c0-9.5,7.7-17.2,17.6-17.6
		c8.4-0.3,16.9-1.6,24.4-5.9c13.8-7.9,22.2-22.6,22.2-38.5c0-15.9-8.5-30.6-22.2-38.5c-13.8-7.9-30.7-7.9-44.4,0
		c-13.8,7.9-22.2,22.6-22.2,38.5c0,8.6,3.1,16.5,7,23.9c3.3,6.2,4.9,17.7-6.3,24.2c-8.4,4.8-18.9,1.8-24.1-6.6
		c-4.4-7.1-9.7-13.7-17.2-18c-13.8-7.9-30.7-7.9-44.4,0C10.4,77.4,1.9,92.1,1.9,108c0,15.9,8.5,30.6,22.2,38.5
		c13.8,7.9,30.7,7.9,44.4,0c7.5-4.3,12.8-10.9,17.2-18c3.6-5.8,12.7-13.2,24.1-6.6c8.4,4.8,11,15.4,6.3,24.2c-3.9,7.3-7,15.3-7,23.9
		c0,15.9,8.5,30.6,22.2,38.5c13.8,7.9,30.7,7.9,44.4,0c13.8-7.9,22.2-22.6,22.2-38.5C198.1,154.1,189.6,139.4,175.9,131.5z"/>
</g>
</svg>
